<svg width="139" height="48" viewBox="0 0 139 48" fill="none" xmlns="http://www.w3.org/2000/svg"><path d="M59 23.5C59 12.73 50.27 4 39.5 4S20 12.73 20 23.5 28.73 43 39.5 43 59 34.27 59 23.5z" fill="#FFC432"/><path d="M39 23.5C39 12.73 30.27 4 19.5 4S0 12.73 0 23.5 8.73 43 19.5 43 39 34.27 39 23.5z" fill="#FF014E"/><path d="M82.836 14.772h-8.93v3.458h8.74v7.372h-8.74V34h-7.6V7.4h16.53v7.372zM107.303 34V6.26h7.03V34h-7.03z" fill="#3740FF"/><path d="M94.869 34.532c-2.838 0-5.257-.963-7.258-2.888-1.976-1.925-2.964-4.307-2.964-7.144 0-2.837.988-5.219 2.964-7.144 1.976-1.925 4.395-2.888 7.258-2.888 2.862 0 5.282.963 7.258 2.888 1.976 1.925 2.964 4.307 2.964 7.144 0 2.837-.988 5.219-2.964 7.144-1.976 1.925-4.396 2.888-7.258 2.888zm-2.318-7.6c.608.608 1.38.912 2.318.912.937 0 1.697-.304 2.28-.912.608-.633.912-1.444.912-2.432s-.304-1.786-.912-2.394c-.583-.633-1.343-.95-2.28-.95-.938 0-1.71.317-2.318.95-.583.608-.874 1.406-.874 2.394 0 .988.291 1.799.874 2.432z" fill="#FFC432"/><path d="M126.746 34.532c-2.838 0-5.257-.963-7.258-2.888-1.976-1.925-2.964-4.307-2.964-7.144 0-2.837.988-5.219 2.964-7.144 1.976-1.925 4.395-2.888 7.258-2.888 2.862 0 5.282.963 7.258 2.888 1.976 1.925 2.964 4.307 2.964 7.144 0 2.837-.988 5.219-2.964 7.144-1.976 1.925-4.396 2.888-7.258 2.888zm-2.318-7.6c.608.608 1.38.912 2.318.912.937 0 1.697-.304 2.28-.912.608-.633.912-1.444.912-2.432s-.304-1.786-.912-2.394c-.583-.633-1.343-.95-2.28-.95-.938 0-1.71.317-2.318.95-.583.608-.874 1.406-.874 2.394 0 .988.291 1.799.874 2.432z" fill="#FF014E"/></svg>